<svg width="20" height="20" viewBox="0 0 20 20" fill="none" xmlns="http://www.w3.org/2000/svg">
<g clip-path="url(#clip0)">
<path d="M11.6667 5C11.6667 4.77898 11.5789 4.56702 11.4226 4.41074C11.2663 4.25446 11.0543 4.16666 10.8333 4.16666H0.833333C0.61232 4.16666 0.400358 4.25446 0.244078 4.41074C0.0877973 4.56702 0 4.77898 0 5C0 5.22101 0.0877973 5.43297 0.244078 5.58925C0.400358 5.74553 0.61232 5.83333 0.833333 5.83333H5V15C5 15.221 5.0878 15.433 5.24408 15.5893C5.40036 15.7455 5.61232 15.8333 5.83333 15.8333C6.05435 15.8333 6.26631 15.7455 6.42259 15.5893C6.57887 15.433 6.66667 15.221 6.66667 15V5.83333H10.8333C11.0543 5.83333 11.2663 5.74553 11.4226 5.58925C11.5789 5.43297 11.6667 5.22101 11.6667 5ZM15.8333 9.16666H10.8333C10.6123 9.16666 10.4004 9.25446 10.2441 9.41074C10.0878 9.56702 10 9.77898 10 10C10 10.221 10.0878 10.433 10.2441 10.5893C10.4004 10.7455 10.6123 10.8333 10.8333 10.8333H12.5V15C12.5 15.221 12.5878 15.433 12.7441 15.5893C12.9004 15.7455 13.1123 15.8333 13.3333 15.8333C13.5543 15.8333 13.7663 15.7455 13.9226 15.5893C14.0789 15.433 14.1667 15.221 14.1667 15V10.8333H15.8333C16.0543 10.8333 16.2663 10.7455 16.4226 10.5893C16.5789 10.433 16.6667 10.221 16.6667 10C16.6667 9.77898 16.5789 9.56702 16.4226 9.41074C16.2663 9.25446 16.0543 9.16666 15.8333 9.16666Z" fill="white"/>
<path d="M19.5834 2.91666L19.5834 16.25" stroke="white" stroke-linecap="round" stroke-linejoin="round"/>
</g>
<defs>
<clipPath id="clip0">
<rect width="20" height="20" fill="white"/>
</clipPath>
</defs>
</svg>
