<svg width="42" height="42" viewBox="0 0 42 42" fill="none" xmlns="http://www.w3.org/2000/svg">
<g clip-path="url(#clip0)">
<path d="M33.556 28.2221V25.6188H39.4045V21.6522H23.4788V25.6188H29.328V28.22C24.5743 28.4422 21 29.4005 21 30.5486C21 31.6966 24.576 32.6549 29.328 32.8785V41.2174H33.5574V32.8778C38.3025 32.6549 41.8696 31.6973 41.8696 30.5503C41.8696 29.4033 38.3025 28.4457 33.5574 28.2228L33.556 28.2221ZM33.5574 32.1715V32.1694C33.438 32.1771 32.825 32.2146 31.4599 32.2146C30.3685 32.2146 29.6007 32.1831 29.3301 32.1687V32.1722C25.1303 31.9829 21.9954 31.2384 21.9954 30.3477C21.9954 29.4569 25.1307 28.7135 29.3301 28.5238V31.4306C29.6052 31.4498 30.3919 31.4971 31.4778 31.4971C32.782 31.4971 33.4377 31.4418 33.558 31.4306V28.5238C37.7496 28.7138 40.8772 29.459 40.8772 30.3466C40.8772 31.2342 37.7482 31.9797 33.558 32.1698" fill="#53AE94"/>
</g>
<g opacity="0.45">
<g opacity="0.45">
<path opacity="0.45" d="M3.91309 10.9292L10.1078 14.5879V0.652161L3.91309 10.9292Z" fill="white"/>
</g>
</g>
<g opacity="0.8">
<g opacity="0.8">
<path opacity="0.8" d="M10.1079 0.652161V14.5898L16.3007 10.9311L10.1079 0.652161Z" fill="white"/>
</g>
</g>
<g opacity="0.45">
<g opacity="0.45">
<path opacity="0.45" d="M3.91309 12.1031L10.1078 20.83V15.7637L3.91309 12.1031Z" fill="white"/>
</g>
</g>
<g opacity="0.8">
<g opacity="0.8">
<path opacity="0.8" d="M10.1079 15.7637V20.83L16.3045 12.1031L10.1079 15.7637Z" fill="white"/>
</g>
</g>
<defs>
<clipPath id="clip0">
<rect width="20.8696" height="20.8696" fill="white" transform="translate(21 21)"/>
</clipPath>
</defs>
</svg>
