<svg width="14" height="14" viewBox="0 0 14 14" fill="none" xmlns="http://www.w3.org/2000/svg">
<path d="M4.76503 6.07388C4.76503 6.5732 4.61727 6.95941 4.32176 7.23251C4.02828 7.50357 3.61048 7.6391 3.06836 7.6391H2.72903V9.12177H1.52148V4.65234H3.06836C3.6329 4.65234 4.05681 4.77565 4.3401 5.02225C4.62339 5.26885 4.76503 5.6194 4.76503 6.07388ZM2.72903 6.65472H2.94913C3.13052 6.65472 3.2742 6.60377 3.38018 6.50187C3.4882 6.39997 3.5422 6.25934 3.5422 6.07999C3.5422 5.77836 3.37508 5.62755 3.04085 5.62755H2.72903V6.65472Z" fill="url(#paint0_linear)"/>
<path d="M5.47733 9.12177V4.65234H6.68487V8.14657H8.406V9.12177H5.47733Z" fill="url(#paint1_linear)"/>
<path d="M12.3649 6.07388C12.3649 6.5732 12.2171 6.95941 11.9216 7.23251C11.6281 7.50357 11.2103 7.6391 10.6682 7.6391H10.3289V9.12177H9.12135V4.65234H10.6682C11.2328 4.65234 11.6567 4.77565 11.94 5.02225C12.2233 5.26885 12.3649 5.6194 12.3649 6.07388ZM10.3289 6.65472H10.549C10.7304 6.65472 10.8741 6.60377 10.98 6.50187C11.0881 6.39997 11.1421 6.25934 11.1421 6.07999C11.1421 5.77836 10.9749 5.62755 10.6407 5.62755H10.3289V6.65472Z" fill="url(#paint2_linear)"/>
<defs>
<linearGradient id="paint0_linear" x1="6.94319" y1="4.65234" x2="6.94319" y2="9.12177" gradientUnits="userSpaceOnUse">
<stop stop-color="#FC6972"/>
<stop offset="1" stop-color="#E32573"/>
</linearGradient>
<linearGradient id="paint1_linear" x1="6.94319" y1="4.65234" x2="6.94319" y2="9.12177" gradientUnits="userSpaceOnUse">
<stop stop-color="#FC6972"/>
<stop offset="1" stop-color="#E32573"/>
</linearGradient>
<linearGradient id="paint2_linear" x1="6.94319" y1="4.65234" x2="6.94319" y2="9.12177" gradientUnits="userSpaceOnUse">
<stop stop-color="#FC6972"/>
<stop offset="1" stop-color="#E32573"/>
</linearGradient>
</defs>
</svg>
