<svg width="46" height="73" viewBox="0 0 46 73" fill="none" xmlns="http://www.w3.org/2000/svg">
<path fill-rule="evenodd" clip-rule="evenodd" d="M27.6 25.185L41.4 17.52V32.85L27.6 25.185ZM41.4 58.035L23 68.255L4.6 58.035V40.15L23 50.37L41.4 40.15V58.035ZM4.6 17.52L18.4 25.185L4.6 32.85V17.52ZM25.3 28.835L39.1 36.5L25.3 44.165V28.835ZM20.7 44.165L6.9 36.5L20.7 28.835V44.165ZM39.1 13.87L23 22.63L6.9 13.87L23 4.745L39.1 13.87ZM0 12.41V60.225L23 72.635L46 60.225V12.41L23 0L0 12.41Z" fill="#13B5EC"/>
</svg>
