<svg width="97" height="104" viewBox="0 0 97 104" fill="none" xmlns="http://www.w3.org/2000/svg">
<path d="M58.3592 35.9901V23.0169H85.5426V3.25H11.5213V23.0169H38.7079V35.9797C16.6131 37.0872 0 41.8628 0 47.5837C0 53.3047 16.6211 58.0802 38.7079 59.1948V100.75H58.3656V59.1913C80.4205 58.0802 97 53.3081 97 47.5924C97 41.8767 80.4205 37.1046 58.3656 35.9936L58.3592 35.9901ZM58.3656 55.6715V55.661C57.811 55.6994 54.9614 55.886 48.6167 55.886C43.544 55.886 39.9753 55.7291 38.7175 55.6576V55.675C19.1973 54.7314 4.62673 51.0215 4.62673 46.5826C4.62673 42.1436 19.1989 38.439 38.7175 37.4936V51.9791C39.9961 52.075 43.6527 52.3105 48.6998 52.3105C54.7617 52.3105 57.8094 52.0349 58.3688 51.9791V37.4936C77.8506 38.4407 92.3876 42.1541 92.3876 46.5773C92.3876 51.0006 77.8442 54.7157 58.3688 55.6628" fill="#53AE94"/>
</svg>
