<svg width="20" height="22" viewBox="0 0 20 22" fill="none" xmlns="http://www.w3.org/2000/svg">
<ellipse cx="9.99935" cy="11" rx="8.33333" ry="9.16667" fill="white" fill-opacity="0.1"/>
<path d="M10.7871 16.457H9.25716V8.53646H10.7871V16.457ZM9.16602 6.43815C9.16602 6.13737 9.2398 5.90582 9.38737 5.74349C9.53928 5.58116 9.75412 5.5 10.0319 5.5C10.301 5.5 10.5093 5.58116 10.6569 5.74349C10.8088 5.90582 10.8848 6.13737 10.8848 6.43815C10.8848 6.72461 10.8088 6.95139 10.6569 7.11849C10.5093 7.28082 10.301 7.36198 10.0319 7.36198C9.75412 7.36198 9.53928 7.28082 9.38737 7.11849C9.2398 6.95139 9.16602 6.72461 9.16602 6.43815Z" fill="white"/>
</svg>
