<svg width="24" height="24" viewBox="0 0 24 24" fill="none" xmlns="http://www.w3.org/2000/svg">
<path fill-rule="evenodd" clip-rule="evenodd" d="M6.5737 19.2402C6.98 19.3986 7.42883 19.5585 7.92019 19.7051C7.0548 20.6028 5.71418 21.8613 5.71418 21.8613C1.5515 21.7293 1 18.319 1 18.319C1 12.2554 3.71351 4.98028 3.71351 4.98028C6.4241 2.94588 9.00413 3.00015 9.00413 3.00015L9.24322 4.60772C7.99353 4.94068 6.71158 5.48925 5.33722 6.24023L6.08967 7.61899C8.35729 6.38251 10.2039 5.80607 12.0037 5.8046C13.8019 5.8046 15.6456 6.37811 17.9074 7.61899L18.6628 6.24023C17.2209 5.44965 15.8818 4.88348 14.5734 4.55785L14.9944 3.00015C14.9944 3.00015 17.5759 2.94441 20.288 4.97882C20.288 4.97882 23 12.2525 23 18.3176C23 18.3176 22.4485 21.7278 18.2858 21.8598C18.2858 21.8598 17.0332 20.6248 16.2059 19.7345C16.6401 19.6025 17.0801 19.4411 17.526 19.2563C18.3377 18.9487 19.1122 18.5507 19.8347 18.0697L18.9693 16.7569C18.2477 17.2336 17.5656 17.5637 16.9628 17.7881L16.9525 17.7925L16.9452 17.7954L16.9305 17.8013C16.1099 18.152 15.2515 18.4069 14.3725 18.5611L14.3593 18.5625C12.8426 18.8416 11.2872 18.8357 9.77272 18.5449C8.87448 18.3688 7.99419 18.111 7.14281 17.7749C6.40356 17.4859 5.77138 17.1794 5.15974 16.7511L4.25915 18.0389C5.0072 18.5625 5.76112 18.9219 6.57077 19.2387L6.5737 19.2402ZM8.61837 9.88808C7.04454 9.88808 5.91073 11.2522 5.91073 12.7644C5.91073 14.284 7.06947 15.6422 8.61837 15.6422C10.1893 15.6422 11.3216 14.2825 11.3246 12.7717C11.3466 11.2375 10.1775 9.88808 8.61837 9.88808V9.88808ZM15.3538 10.0289C14.6101 10.0289 13.9471 10.312 13.4763 10.8312C13.0143 11.3446 12.7869 12.031 12.7869 12.7644C12.7869 13.4978 13.0157 14.2238 13.4411 14.7856C13.8709 15.3547 14.5324 15.783 15.3538 15.783C16.9276 15.783 18.0599 14.4189 18.0599 12.9052C18.0599 11.3915 16.9276 10.0289 15.3538 10.0289V10.0289Z" fill="white"/>
</svg>
