<svg width="24" height="24" viewBox="0 0 24 24" fill="none" xmlns="http://www.w3.org/2000/svg">
<path d="M13.4094 12.2474C13.4094 15.6976 10.6315 18.4946 7.20482 18.4946C3.77819 18.4946 1 15.6976 1 12.2474C1 8.79717 3.77798 6 7.20482 6C10.6317 6 13.4094 8.79717 13.4094 12.2474Z" fill="white"/>
<path d="M20.2163 12.2473C20.2163 15.495 18.8273 18.1287 17.1139 18.1287C15.4005 18.1287 14.0115 15.495 14.0115 12.2473C14.0115 8.99964 15.4003 6.36584 17.1137 6.36584C18.8271 6.36584 20.2161 8.99879 20.2161 12.2473" fill="white"/>
<path d="M22.9997 12.2471C22.9997 15.1562 22.5112 17.516 21.9085 17.516C21.3059 17.516 20.8176 15.1569 20.8176 12.2471C20.8176 9.33739 21.3061 6.97827 21.9085 6.97827C22.511 6.97827 22.9997 9.33718 22.9997 12.2471Z" fill="white"/>
</svg>
