<svg width="24" height="24" viewBox="0 0 24 24" fill="none" xmlns="http://www.w3.org/2000/svg">
<path d="M23 11.8846C23 10.5117 21.9017 9.41342 20.5289 9.5507C19.9797 9.5507 19.2933 9.82527 18.8814 10.2371C16.9594 9.00156 14.7629 8.17785 12.429 8.17785L13.5273 2.961L17.0967 3.78471C17.0967 4.74571 17.9204 5.43214 18.8814 5.43214C19.8424 5.43214 20.5289 4.60842 20.5289 3.64743C20.5289 2.68643 19.7051 2 18.7441 2C18.0577 2 17.5086 2.41186 17.234 2.961L13.39 2H13.1154C12.9782 2 12.9782 2.13729 12.9782 2.27457L11.6053 8.17785C9.27145 8.17785 7.07488 8.86427 5.15289 10.2371C4.19189 9.27613 2.68175 9.27613 1.72075 10.2371C0.75975 11.1981 0.75975 12.7083 1.72075 13.6693C1.85803 13.8066 2.13261 14.0811 2.40718 14.0811V14.7675C2.40718 18.4743 6.66303 21.4945 12.0172 21.4945C17.3713 21.4945 21.6271 18.4743 21.6271 14.7675V14.0811C22.4509 13.6693 23 12.8456 23 11.8846ZM6.52574 13.6693C6.52574 12.7083 7.34945 12.0218 8.17317 12.0218C9.13417 12.0218 9.82059 12.8456 9.82059 13.6693C9.82059 14.493 8.99688 15.3167 8.17317 15.3167C7.21217 15.3167 6.52574 14.6303 6.52574 13.6693ZM16.1357 18.1997C14.9002 19.0234 13.5273 19.5725 12.0172 19.4353C10.507 19.4353 9.13417 19.0234 7.8986 18.1997C7.76131 18.0624 7.76131 17.7878 7.8986 17.5133C8.03588 17.376 8.31045 17.376 8.44774 17.5133C9.40874 18.1997 10.6443 18.6115 11.8799 18.4743C13.1154 18.6115 14.351 18.1997 15.312 17.5133C15.4493 17.376 15.7239 17.376 15.9984 17.5133C16.273 17.6505 16.273 17.9251 16.1357 18.1997ZM15.7239 15.3167C14.7629 15.3167 14.0764 14.493 14.0764 13.6693C14.0764 12.8456 14.9002 12.0218 15.7239 12.0218C16.6849 12.0218 17.3713 12.8456 17.3713 13.6693C17.5086 14.6303 16.6849 15.3167 15.7239 15.3167Z" fill="white"/>
</svg>
