<svg width="24" height="24" viewBox="0 0 24 24" fill="none" xmlns="http://www.w3.org/2000/svg">
<path d="M23 5.09066C22.191 5.43433 21.3105 5.68167 20.4037 5.778C21.3452 5.22718 22.0503 4.35698 22.3866 3.33066C21.5031 3.84822 20.5352 4.21114 19.5259 4.40332C19.104 3.95923 18.5938 3.60544 18.0271 3.36401C17.4603 3.12257 16.8491 2.99867 16.2316 3.00001C13.7331 3.00001 11.7237 4.99433 11.7237 7.44167C11.7237 7.78533 11.766 8.129 11.8348 8.45965C8.09362 8.26699 4.757 6.50699 2.53876 3.81232C2.13457 4.49214 1.92276 5.26621 1.92537 6.05397C1.92537 7.59527 2.72119 8.95433 3.93474 9.75362C3.21958 9.72588 2.52116 9.53231 1.89629 9.18865V9.24332C1.89629 11.4017 3.44562 13.1903 5.51052 13.6017C5.12281 13.7008 4.72397 13.7516 4.3234 13.7527C4.02992 13.7527 3.75231 13.724 3.47206 13.685C4.04314 15.445 5.70616 16.7233 7.68646 16.765C6.13712 17.96 4.19649 18.663 2.08929 18.663C1.71121 18.663 1.36222 18.6499 1 18.6083C2.9988 19.871 5.37039 20.6 7.92441 20.6C16.2157 20.6 20.7527 13.836 20.7527 7.96498C20.7527 7.77232 20.7527 7.57965 20.7395 7.38699C21.6172 6.75433 22.3866 5.97066 23 5.09066Z" fill="white"/>
</svg>
